<svg width="30" height="28" viewBox="0 0 30 28" fill="none" xmlns="http://www.w3.org/2000/svg">
<path d="M23.5069 0H6.49264C5.53613 0 4.76315 -3.41865e-07 4.14018 0.0511784C3.49604 0.104122 2.93131 0.215303 2.40893 0.480021C1.57834 0.903084 0.903085 1.57834 0.480021 2.40893C0.358251 2.64894 0.303543 2.9666 0.268248 3.20308C0.225893 3.48192 0.192362 3.82076 0.164125 4.19313C0.109417 4.9414 0.0723565 5.87497 0.0476495 6.83677C3.32004e-07 8.76039 0 10.834 0 11.8223C0 12.0563 0.0929662 12.2825 0.258447 12.448C0.423927 12.6135 0.648367 12.7064 0.882392 12.7064C1.11642 12.7064 1.34086 12.6135 1.50634 12.448C1.67182 12.2825 1.76478 12.0581 1.76478 11.8241C1.76478 11.1711 1.76478 10.054 1.7789 8.82392H28.2348V18.1773C28.2348 19.1797 28.2348 19.8803 28.1889 20.4238C28.1465 20.9568 28.0654 21.2639 27.9471 21.4968C27.6933 21.9954 27.288 22.4007 26.7894 22.6545C26.5565 22.7728 26.2494 22.854 25.7164 22.8963C25.1729 22.9422 24.4723 22.9422 23.4699 22.9422H14.9989C14.7649 22.9422 14.5404 23.0352 14.375 23.2006C14.2095 23.3661 14.1165 23.5906 14.1165 23.8246C14.1165 24.0586 14.2095 24.2831 14.375 24.4485C14.5404 24.614 14.7649 24.707 14.9989 24.707H23.5069C24.4634 24.707 25.2364 24.707 25.8594 24.6558C26.5035 24.6029 27.0683 24.4917 27.5906 24.2252C28.4203 23.8023 29.0949 23.1277 29.5178 22.298C29.7843 21.7757 29.8954 21.2109 29.9484 20.5686C29.9996 19.9421 29.9996 19.1709 29.9996 18.2143V6.49441C29.9996 5.53789 29.9996 4.76492 29.9484 4.14195C29.8954 3.4978 29.7843 2.93307 29.5178 2.4107C29.0952 1.58038 28.4206 0.905149 27.5906 0.481786C27.0683 0.217068 26.5035 0.105887 25.8612 0.0529439C25.2347 3.7145e-07 24.4634 0 23.5069 0ZM28.2277 5.29435H1.86538C1.88185 4.9414 1.90126 4.61785 1.92362 4.32372C1.94832 3.96841 1.97773 3.68134 2.01185 3.46251C2.03303 3.31956 2.05068 3.24191 2.05774 3.21014L2.06127 3.19249C2.31535 2.70212 2.71644 2.30349 3.20838 2.05244C3.44133 1.9342 3.7484 1.85302 4.28137 1.81067C4.82669 1.76478 5.52554 1.76478 6.52794 1.76478H23.4699C24.4723 1.76478 25.1729 1.76478 25.7164 1.81067C26.2494 1.85302 26.5565 1.9342 26.7894 2.05244C27.288 2.30631 27.6933 2.7116 27.9471 3.21014C28.0654 3.44309 28.1465 3.75017 28.1889 4.28313C28.2136 4.57079 28.2224 4.90081 28.2277 5.29435Z" fill="#FF4C4C"/>
<path d="M18.5287 15.8831C18.0607 15.8831 17.6118 16.069 17.2808 16.4C16.9499 16.7309 16.7639 17.1798 16.7639 17.6478C16.7639 18.1159 16.9499 18.5648 17.2808 18.8957C17.6118 19.2267 18.0607 19.4126 18.5287 19.4126H23.8231C24.2911 19.4126 24.74 19.2267 25.0709 18.8957C25.4019 18.5648 25.5878 18.1159 25.5878 17.6478C25.5878 17.1798 25.4019 16.7309 25.0709 16.4C24.74 16.069 24.2911 15.8831 23.8231 15.8831H18.5287Z" fill="#FF4C4C"/>
<path d="M11.2896 18.5633L10.8423 20.2668H2.62503L3.06622 18.5633H11.2896ZM7.01861 28L2.82724 23.012L2.83337 21.4801H4.90454C5.36616 21.4801 5.75221 21.3943 6.06268 21.2227C6.37315 21.0512 6.60601 20.8183 6.76124 20.5242C6.91648 20.23 6.99614 19.8951 7.00022 19.5192C6.99614 18.9555 6.83069 18.4959 6.50388 18.1405C6.18115 17.781 5.64804 17.6013 4.90454 17.6013H2.62503L3.1275 15.4504H4.90454C5.94625 15.4504 6.81435 15.6077 7.50882 15.9223C8.20738 16.2327 8.73028 16.676 9.07752 17.252C9.42884 17.828 9.60655 18.5143 9.61063 19.3109C9.60655 20.0176 9.48808 20.6345 9.25523 21.1615C9.02646 21.6884 8.66492 22.1276 8.17062 22.4789C7.6804 22.8302 7.04107 23.0917 6.25264 23.2633L6.1546 23.3L9.90476 27.8897V28H7.01861ZM11.3019 15.4504L10.8423 17.1784H4.0773L4.53688 15.4504H11.3019Z" fill="#FF4C4C"/>
</svg>
