<svg width="30" height="31" viewBox="0 0 30 31" fill="none" xmlns="http://www.w3.org/2000/svg">
<path d="M4.48279 17.3213C4.48266 17.0503 4.53597 16.782 4.63966 16.5317C4.74335 16.2814 4.8954 16.0541 5.08708 15.8626C5.27877 15.6711 5.50634 15.5194 5.75676 15.416C6.00718 15.3126 6.27554 15.2596 6.54646 15.26C6.81742 15.2596 7.08579 15.3127 7.33624 15.4161C7.58668 15.5195 7.81429 15.6712 8.00604 15.8627C8.19779 16.0541 8.34993 16.2815 8.45375 16.5317C8.55758 16.782 8.61105 17.0503 8.61111 17.3213C8.61111 17.8687 8.39364 18.3937 8.00653 18.7808C7.61943 19.1679 7.0944 19.3854 6.54695 19.3854C5.9995 19.3854 5.47447 19.1679 5.08737 18.7808C4.70026 18.3937 4.48279 17.8687 4.48279 17.3213ZM24.4158 16.0587C25.3235 16.0587 26.0565 16.7703 26.0643 17.6712L26.0677 22.0244H9.50326V16.0631L24.4158 16.0587ZM7.59582 22.021C8.15603 22.021 8.61111 21.5659 8.61111 21.0057C8.61111 20.4455 8.15603 19.9904 7.59582 19.9904H4.66092C4.52762 19.9903 4.39562 20.0166 4.27246 20.0676C4.14931 20.1186 4.03742 20.1934 3.94321 20.2877C3.84899 20.382 3.7743 20.494 3.72341 20.6172C3.67251 20.7404 3.64642 20.8724 3.64661 21.0057C3.64661 21.5659 4.09828 22.021 4.66092 22.021H7.59582Z" fill="#FF5900"/>
<path d="M27.0498 26.3021V30.8418H29.7379V16.4457C29.7381 16.2694 29.7036 16.0949 29.6363 15.932C29.569 15.7691 29.4702 15.6211 29.3457 15.4964C29.2212 15.3717 29.0733 15.2727 28.9105 15.2052C28.7477 15.1377 28.5732 15.1029 28.397 15.1028C28.0403 15.1023 27.698 15.2435 27.4453 15.4953C27.1927 15.7471 27.0504 16.0889 27.0498 16.4457V23.0528H2.914V13.7298C2.914 12.9885 2.26764 12.3855 1.52443 12.3855V12.3864C0.783646 12.3864 0.200073 12.9885 0.200073 13.7293V30.8413H2.91352V26.3017L27.0498 26.3021ZM18.5318 0.000486717C19.3918 0.000486717 20.8003 0.362117 21.584 1.21971L20.5278 3.24834C20.2924 2.94295 19.99 2.69573 19.6439 2.52577C19.2978 2.3558 18.9173 2.26765 18.5318 2.2681C17.7292 2.2681 17.0151 2.64287 16.5533 3.22839L15.4761 1.26449C16.3829 0.35725 17.6367 0 18.5318 0V0.000486717ZM18.2276 2.0447H18.8301V1.44165H19.4332V0.840072H18.8301V0.237518H18.2276V0.840072H17.6255V1.44165H18.2276V2.0447Z" fill="#FF5900"/>
<path d="M20.4659 4.92025C20.4659 5.43433 20.2617 5.92736 19.8982 6.29087C19.5347 6.65438 19.0417 6.85859 18.5276 6.85859C18.0135 6.85859 17.5205 6.65438 17.157 6.29087C16.7935 5.92736 16.5892 5.43433 16.5892 4.92025C16.5892 4.40617 16.7935 3.91314 17.157 3.54963C17.5205 3.18612 18.0135 2.9819 18.5276 2.9819C19.0417 2.9819 19.5347 3.18612 19.8982 3.54963C20.2617 3.91314 20.4659 4.40617 20.4659 4.92025ZM16.6637 7.41077C15.3087 7.41808 14.5236 8.51757 14.3469 9.13862L12.696 14.5572H14.3669L15.5837 10.3997H16.4496L15.2362 14.5563H21.8102L20.6056 10.3997H21.471L22.7199 14.5572H24.366L22.7087 9.13862C22.5325 8.52536 21.764 7.44679 20.4387 7.41369L16.6637 7.41077ZM4.31231 8.65677C1.93324 8.65677 0 6.72256 0 4.34349C0 1.96393 1.93275 0.0292358 4.31231 0.0292358C6.6904 0.0292358 8.62656 1.96442 8.62656 4.34349C8.62656 6.72256 6.68992 8.65677 4.31231 8.65677ZM4.31085 7.58891C6.10099 7.58891 7.55822 6.13314 7.55822 4.34251C7.55822 2.55383 6.10148 1.09563 4.31085 1.09563C2.52168 1.09563 1.06688 2.55335 1.06688 4.34251C1.06688 6.13363 2.52168 7.58891 4.31085 7.58891Z" fill="#FF5900"/>
<path d="M4.33422 4.9129C4.28466 4.93574 4.2301 4.94558 4.17568 4.94149C4.12127 4.9374 4.06879 4.91952 4.0232 4.88953C3.98458 4.86468 3.95174 4.83184 3.92688 4.79322C3.90203 4.75459 3.88575 4.71109 3.87914 4.66564L3.87476 2.15857C3.878 2.07471 3.9136 1.99536 3.97408 1.93718C4.03457 1.879 4.11523 1.8465 4.19915 1.8465C4.28308 1.8465 4.36374 1.879 4.42422 1.93718C4.4847 1.99536 4.5203 2.07471 4.52355 2.15857V4.10349L6.18617 3.32036C6.26313 3.28868 6.34933 3.28782 6.4269 3.31795C6.50448 3.34808 6.5675 3.40689 6.60291 3.48221C6.63831 3.55752 6.64339 3.64357 6.6171 3.72253C6.5908 3.80149 6.53515 3.86732 6.46165 3.90637L4.33422 4.9129Z" fill="#FF5900"/>
</svg>
