<svg width="30" height="32" viewBox="0 0 30 32" fill="none" xmlns="http://www.w3.org/2000/svg">
<path fill-rule="evenodd" clip-rule="evenodd" d="M14.8373 16.2545C15.1324 16.2545 15.4155 16.3718 15.6242 16.5804C15.8329 16.7891 15.9501 17.0722 15.9501 17.3673V18.4801H17.0629C17.358 18.4801 17.6411 18.5974 17.8498 18.8061C18.0585 19.0147 18.1757 19.2978 18.1757 19.5929C18.1757 19.8881 18.0585 20.1711 17.8498 20.3798C17.6411 20.5885 17.358 20.7057 17.0629 20.7057H15.9501V21.8185C15.9501 22.1137 15.8329 22.3967 15.6242 22.6054C15.4155 22.8141 15.1324 22.9313 14.8373 22.9313C14.5422 22.9313 14.2591 22.8141 14.0504 22.6054C13.8417 22.3967 13.7245 22.1137 13.7245 21.8185V20.7057H12.6117C12.3166 20.7057 12.0335 20.5885 11.8248 20.3798C11.6161 20.1711 11.4989 19.8881 11.4989 19.5929C11.4989 19.2978 11.6161 19.0147 11.8248 18.8061C12.0335 18.5974 12.3166 18.4801 12.6117 18.4801H13.7245V17.3673C13.7245 17.0722 13.8417 16.7891 14.0504 16.5804C14.2591 16.3718 14.5422 16.2545 14.8373 16.2545Z" fill="#2E369A"/>
<path fill-rule="evenodd" clip-rule="evenodd" d="M14.7602 0.675323C13.4263 0.675323 12.315 0.675324 11.4337 0.794022C10.5019 0.918656 9.6606 1.19463 8.9855 1.86973C8.30892 2.54631 8.03294 3.38759 7.90831 4.31789C7.78961 5.20072 7.78961 6.31352 7.78961 7.64591V7.76164C4.79098 7.85957 2.98973 8.20973 1.73894 9.462C-1.76875e-07 11.1995 0 13.9978 0 19.5929C0 25.1881 -1.76875e-07 27.9864 1.73894 29.7239C3.47787 31.4613 6.27471 31.4628 11.8699 31.4628H17.8048C23.4 31.4628 26.1983 31.4628 27.9358 29.7239C29.6732 27.9849 29.6747 25.1881 29.6747 19.5929C29.6747 13.9978 29.6747 11.1995 27.9358 9.462C26.685 8.20973 24.8837 7.85957 21.8851 7.76164V7.64591C21.8851 6.31352 21.8851 5.20072 21.7664 4.31938C21.6418 3.38759 21.3658 2.54631 20.6892 1.87121C20.0141 1.19463 19.1728 0.918656 18.241 0.794022C17.3597 0.675324 16.2469 0.675323 14.9145 0.675323H14.7602ZM19.6595 7.72603V7.72306C19.6595 6.29274 19.6565 5.33128 19.5616 4.61464C19.4681 3.93064 19.3093 3.63686 19.1164 3.44397C18.9236 3.25109 18.6298 3.09233 17.9443 2.99885C17.2291 2.90389 16.2677 2.90093 14.8373 2.90093C13.407 2.90093 12.4456 2.90389 11.7289 3.00034C11.0449 3.09233 10.7511 3.25109 10.5583 3.44546C10.3654 3.63983 10.2066 3.93064 10.1131 4.61464C10.0197 5.33128 10.0152 6.29274 10.0152 7.72306V7.72603C10.5958 7.72405 11.2141 7.72306 11.8699 7.72306H17.8048C18.4596 7.72306 19.0779 7.72405 19.6595 7.72603ZM20.7723 19.5929C20.7723 21.167 20.147 22.6766 19.034 23.7896C17.921 24.9026 16.4114 25.5279 14.8373 25.5279C13.2633 25.5279 11.7537 24.9026 10.6407 23.7896C9.5277 22.6766 8.90241 21.167 8.90241 19.5929C8.90241 18.0189 9.5277 16.5093 10.6407 15.3963C11.7537 14.2833 13.2633 13.658 14.8373 13.658C16.4114 13.658 17.921 14.2833 19.034 15.3963C20.147 16.5093 20.7723 18.0189 20.7723 19.5929Z" fill="#2E369A"/>
</svg>
