<svg width="29" height="29" viewBox="0 0 29 29" fill="none" xmlns="http://www.w3.org/2000/svg">
<path d="M18.2669 10.698C17.3245 9.76002 16.2065 9.01691 14.9769 8.51104C13.7472 8.00517 12.43 7.74645 11.1004 7.74967C9.77079 7.75288 8.45483 8.01795 7.22766 8.52976C6.00049 9.04156 4.88614 9.79007 3.94823 10.7326C3.01032 11.675 2.26723 12.793 1.76138 14.0227C1.25552 15.2524 0.996817 16.5696 1.00003 17.8993C1.00324 19.2289 1.26831 20.5449 1.7801 21.7721C2.29189 22.9994 3.04037 24.1137 3.98282 25.0517C5.88618 26.9459 8.46405 28.0065 11.1493 28C13.8346 27.9935 16.4073 26.9205 18.3015 25.0171C20.1957 23.1137 21.2562 20.5357 21.2497 17.8504C21.2432 15.165 20.1703 12.5922 18.2669 10.698ZM18.2669 10.698L28 1L18.2669 10.698ZM28 1H21.2503H28ZM28 1V7.74993V1Z" fill="#C440FF"/>
<path d="M18.2669 10.698C17.3245 9.76002 16.2065 9.01691 14.9769 8.51104C13.7472 8.00517 12.43 7.74645 11.1004 7.74967C9.77079 7.75288 8.45483 8.01795 7.22766 8.52976C6.00049 9.04156 4.88614 9.79007 3.94823 10.7326C3.01032 11.675 2.26723 12.793 1.76138 14.0227C1.25552 15.2524 0.996817 16.5696 1.00003 17.8993C1.00324 19.2289 1.26831 20.5449 1.7801 21.7721C2.29189 22.9994 3.04037 24.1137 3.98282 25.0517C5.88618 26.9459 8.46405 28.0065 11.1493 28C13.8346 27.9935 16.4073 26.9205 18.3015 25.0171C20.1957 23.1137 21.2562 20.5357 21.2497 17.8504C21.2432 15.165 20.1703 12.5922 18.2669 10.698ZM18.2669 10.698L28 1M28 1H21.2503M28 1V7.74993" stroke="#C440FF" stroke-width="2" stroke-linecap="round" stroke-linejoin="round"/>
</svg>
