<svg width="28" height="31" viewBox="0 0 28 31" fill="none" xmlns="http://www.w3.org/2000/svg">
<path d="M8.43591 10.4526L8.61675 10.4371C8.6823 10.4301 8.74499 10.4066 8.79889 10.3686L8.79759 10.3699C8.97069 10.9667 9.18253 11.5945 9.44733 12.252C9.78705 13.1123 10.1216 13.8188 10.4962 14.5009L10.4445 14.3975C10.4135 14.8677 10.3761 15.3508 10.327 15.8184C10.305 16.0942 10.2491 16.3662 10.1604 16.6283L10.1668 16.6051C10.1513 16.6115 10.1294 19.2918 10.1294 19.2918C10.1303 20.1234 10.4108 20.9305 10.9257 21.5834C11.4406 22.2363 12.1601 22.6972 12.9686 22.8919L12.9944 22.897C13.0297 22.8034 13.0928 22.7227 13.1752 22.6659C13.2576 22.6091 13.3554 22.5789 13.4555 22.5793H14.197C14.296 22.5806 14.3924 22.6111 14.4742 22.6669C14.556 22.7227 14.6195 22.8014 14.6568 22.8932L14.6581 22.897C15.4733 22.7079 16.2009 22.2494 16.7234 21.5957C17.2458 20.942 17.5326 20.1312 17.5374 19.2944C17.5374 19.2944 17.4922 16.6244 17.4689 16.6064C17.3907 16.357 17.3379 16.1004 17.3113 15.8404L17.31 15.821C17.2648 15.3508 17.2351 14.8793 17.1925 14.4001C17.5115 13.824 17.8461 13.1187 18.1406 12.3915L18.1897 12.2546C18.4545 11.5971 18.6599 10.9706 18.8394 10.3725C18.8926 10.41 18.9543 10.4336 19.019 10.441H19.0203L19.2024 10.4565C19.422 10.4797 19.6158 10.2989 19.6338 10.0186L19.8302 7.52427V7.52169C19.8301 7.42131 19.7934 7.32441 19.7271 7.24906C19.6608 7.17372 19.5693 7.12507 19.4698 7.11221H19.4452C19.619 5.81342 19.5124 4.49247 19.1327 3.23834L19.1494 3.30422C18.7851 2.49524 18.231 1.78609 17.5341 1.23695C16.8372 0.687816 16.0182 0.314896 15.1464 0.14984L15.1128 0.144673C14.69 0.0608655 14.261 0.0124735 13.8301 0H13.803C13.3523 0.00815036 12.9033 0.0591882 12.4622 0.152423L12.5087 0.144673C11.6376 0.306903 10.818 0.675181 10.1182 1.21876C9.41847 1.76233 8.85892 2.46543 8.48629 3.26934L8.47208 3.30422C8.10031 4.55386 8.0012 5.86876 8.18144 7.16001L8.17628 7.11221C8.07647 7.12301 7.98414 7.17022 7.91694 7.24481C7.84974 7.31939 7.81238 7.41613 7.81201 7.51652V7.52556L8.00835 10.0199C8.02644 10.3066 8.22278 10.4797 8.43462 10.4565L8.43591 10.4526Z" fill="#27A4FF"/>
<path d="M27.6645 26.9608C27.5741 23.034 27.1814 22.1453 26.9696 21.5433C26.8856 21.3018 26.8172 19.669 24.1201 18.6098C22.4667 17.9588 20.3327 17.9459 18.5269 17.1825V19.3061C18.5255 20.3949 18.1453 21.4493 17.4514 22.2883C16.7575 23.1274 15.7933 23.6988 14.7241 23.9046L14.6944 23.9098C14.675 24.0243 14.6161 24.1285 14.5278 24.204C14.4395 24.2796 14.3275 24.3217 14.2113 24.3231H14.188V25.9248C14.188 26.6765 14.4866 27.3973 15.0181 27.9288C15.5496 28.4603 16.2704 28.7589 17.0221 28.7589C17.7737 28.7589 18.4945 28.4603 19.026 27.9288C19.5575 27.3973 19.8561 26.6765 19.8561 25.9248V24.8062C19.466 24.749 19.1104 24.5508 18.8565 24.2491C18.6027 23.9474 18.4682 23.5632 18.4785 23.169C18.4888 22.7749 18.6432 22.3982 18.9125 22.1102C19.1818 21.8222 19.5473 21.6429 19.9399 21.6061C20.3324 21.5694 20.7248 21.6778 21.0429 21.9109C21.3609 22.144 21.5825 22.4855 21.6657 22.8709C21.749 23.2563 21.6881 23.6588 21.4946 24.0024C21.3011 24.3459 20.9884 24.6066 20.6156 24.7352L20.604 24.739V25.9856C20.604 26.9359 20.2265 27.8473 19.5545 28.5193C18.8825 29.1913 17.9711 29.5688 17.0208 29.5688C16.0704 29.5688 15.159 29.1913 14.487 28.5193C13.8151 27.8473 13.4375 26.9359 13.4375 25.9856V25.921V25.9236V24.3076C13.3269 24.3003 13.2219 24.2557 13.1398 24.1811C13.0577 24.1065 13.0033 24.0063 12.9854 23.8968V23.8943C11.9153 23.6902 10.9494 23.1203 10.2533 22.2823C9.55716 21.4443 9.17408 20.3903 9.16969 19.3009V17.1605C7.35612 17.9394 5.20928 17.9549 3.54684 18.6072C0.841973 19.6652 0.779971 21.294 0.6973 21.5395C0.490625 22.144 0.0927753 23.0288 0.00235482 26.9582C-0.0131458 27.4749 0.00235489 28.2667 1.56017 28.9591C4.95223 30.2896 9.32212 30.7029 13.63 31H14.0434C18.3603 30.7055 22.7237 30.2934 26.1132 28.9591C27.6645 28.2706 27.6788 27.4827 27.6645 26.9608ZM8.7008 25.3591H7.09132V26.975H5.94169V25.3642H4.3322V24.2146H5.94169V22.6051H7.09132V24.2146H8.7008V25.3591Z" fill="#27A4FF"/>
<path d="M20.9592 23.198C20.9591 22.9675 20.8674 22.7452 20.7043 22.5823C20.5412 22.4194 20.3201 22.3279 20.0896 22.328C19.8591 22.3281 19.638 22.4197 19.4751 22.5828C19.3121 22.7458 19.2206 22.9669 19.2206 23.1974C19.2206 23.4279 19.3121 23.6489 19.4751 23.812C19.638 23.975 19.8591 24.0666 20.0896 24.0667C20.3201 24.0668 20.5412 23.9753 20.7043 23.8124C20.8674 23.6495 20.9591 23.4285 20.9592 23.198Z" fill="#27A4FF"/>
</svg>
