<svg width="29" height="25" viewBox="0 0 29 25" fill="none" xmlns="http://www.w3.org/2000/svg">
<path d="M19.8421 15.2632C18.5702 15.2632 17.489 14.818 16.5987 13.9276C15.7083 13.0373 15.2632 11.9561 15.2632 10.6842C15.2632 9.41228 15.7083 8.33114 16.5987 7.44079C17.489 6.55044 18.5702 6.10526 19.8421 6.10526C21.114 6.10526 22.1952 6.55044 23.0855 7.44079C23.9759 8.33114 24.4211 9.41228 24.4211 10.6842C24.4211 11.9561 23.9759 13.0373 23.0855 13.9276C22.1952 14.818 21.114 15.2632 19.8421 15.2632ZM12.2105 24.421C11.7781 24.421 11.4158 24.2745 11.1238 23.9815C10.8318 23.6884 10.6852 23.3262 10.6842 22.8947V21.521C10.6842 20.9868 10.8114 20.4781 11.0658 19.9947C11.3202 19.5114 11.6763 19.1298 12.1342 18.85C13.2789 18.1632 14.4939 17.6483 15.7791 17.3054C17.0642 16.9625 18.4186 16.7905 19.8421 16.7895C21.2656 16.7885 22.6205 16.9604 23.9067 17.3054C25.1929 17.6503 26.4073 18.1652 27.55 18.85C28.0079 19.1298 28.364 19.5114 28.6184 19.9947C28.8728 20.4781 29 20.9868 29 21.521V22.8947C29 23.3272 28.8535 23.6899 28.5604 23.983C28.2674 24.276 27.9051 24.4221 27.4737 24.421H12.2105ZM10.6842 15.2632H1.52632C1.09386 15.2632 0.731619 15.1166 0.439584 14.8236C0.147549 14.5305 0.00102281 14.1683 5.26315e-06 13.7368C-0.00101228 13.3054 0.145514 12.9432 0.439584 12.6501C0.733654 12.357 1.0959 12.2105 1.52632 12.2105H10.6842C11.1167 12.2105 11.4794 12.357 11.7725 12.6501C12.0655 12.9432 12.2115 13.3054 12.2105 13.7368C12.2095 14.1683 12.063 14.531 11.7709 14.8251C11.4789 15.1192 11.1167 15.2652 10.6842 15.2632ZM16.7895 3.05263H1.52632C1.09386 3.05263 0.731619 2.9061 0.439584 2.61305C0.147549 2.32 0.00102281 1.95775 5.26315e-06 1.52632C-0.00101228 1.09488 0.145514 0.732632 0.439584 0.439579C0.733654 0.146526 1.0959 0 1.52632 0H16.7895C17.2219 0 17.5847 0.146526 17.8777 0.439579C18.1708 0.732632 18.3168 1.09488 18.3158 1.52632C18.3148 1.95775 18.1682 2.32051 17.8762 2.61458C17.5842 2.90865 17.2219 3.05467 16.7895 3.05263ZM12.3632 9.15789H1.52632C1.09386 9.15789 0.731619 9.01137 0.439584 8.71831C0.147549 8.42526 0.00102281 8.06302 5.26315e-06 7.63158C-0.00101228 7.20014 0.145514 6.83789 0.439584 6.54484C0.733654 6.25179 1.0959 6.10526 1.52632 6.10526H13.7368C13.3807 6.53772 13.0948 7.00833 12.8791 7.5171C12.6633 8.02588 12.4914 8.57281 12.3632 9.15789Z" fill="#FEA747"/>
</svg>
