<svg width="29" height="32" viewBox="0 0 29 32" fill="none" xmlns="http://www.w3.org/2000/svg">
<path d="M27.6981 8.53119C27.3502 7.8042 26.8601 7.1543 26.2568 6.6199L21.5569 2.35866C20.5224 1.41045 19.2089 0.822401 17.8126 0.682357H8.16216C7.12436 0.638349 6.08817 0.80119 5.11389 1.1614C4.13961 1.52162 3.24671 2.07201 2.48714 2.78055C1.72758 3.48909 1.11652 4.34163 0.689531 5.28854C0.262543 6.23546 0.0281519 7.25784 0 8.2962V24.4325C0.0554209 25.9984 0.579175 27.5117 1.50358 28.7768C2.42799 30.0419 3.71056 31.0008 5.18556 31.5294C6.14451 31.8939 7.16906 32.054 8.19349 31.9994H20.0372C21.075 32.0434 22.1112 31.8805 23.0855 31.5203C24.0598 31.1601 24.9527 30.6097 25.7123 29.9012C26.4718 29.1926 27.0829 28.3401 27.5099 27.3932C27.9369 26.4463 28.1713 25.4239 28.1994 24.3855V10.9595C28.207 10.1236 28.036 9.29574 27.6981 8.53119ZM7.33185 7.90454H12.4391C12.8546 7.90454 13.253 8.06959 13.5469 8.3634C13.8407 8.6572 14.0057 9.05568 14.0057 9.47117C14.0057 9.88667 13.8407 10.2851 13.5469 10.579C13.253 10.8728 12.8546 11.0378 12.4391 11.0378H7.33185C6.91635 11.0378 6.51787 10.8728 6.22407 10.579C5.93027 10.2851 5.76521 9.88667 5.76521 9.47117C5.76521 9.05568 5.93027 8.6572 6.22407 8.3634C6.51787 8.06959 6.91635 7.90454 7.33185 7.90454ZM20.9616 24.6832H7.33185C6.91635 24.6832 6.51787 24.5181 6.22407 24.2243C5.93027 23.9305 5.76521 23.5321 5.76521 23.1166C5.76521 22.7011 5.93027 22.3026 6.22407 22.0088C6.51787 21.715 6.91635 21.5499 7.33185 21.5499H20.9616C21.335 21.6031 21.6767 21.7893 21.9239 22.0742C22.1711 22.3591 22.3072 22.7237 22.3072 23.1009C22.3072 23.4781 22.1711 23.8426 21.9239 24.1276C21.6767 24.4125 21.335 24.5986 20.9616 24.6519V24.6832ZM20.9616 17.8683H7.33185C6.91635 17.8683 6.51787 17.7033 6.22407 17.4095C5.93027 17.1157 5.76521 16.7172 5.76521 16.3017C5.76521 15.8862 5.93027 15.4877 6.22407 15.1939C6.51787 14.9001 6.91635 14.7351 7.33185 14.7351H20.9616C21.3771 14.7351 21.7755 14.9001 22.0693 15.1939C22.3631 15.4877 22.5282 15.8862 22.5282 16.3017C22.5282 16.7172 22.3631 17.1157 22.0693 17.4095C21.7755 17.7033 21.3771 17.8683 20.9616 17.8683ZM20.4602 9.14218C20.2367 9.14425 20.015 9.10201 19.8079 9.01791C19.6008 8.93381 19.4125 8.80951 19.2537 8.65219C19.0949 8.49487 18.9689 8.30765 18.8829 8.10134C18.7969 7.89504 18.7526 7.67373 18.7526 7.45022V3.29864C19.7866 3.5493 23.8128 7.68521 24.6901 8.37453C24.9496 8.59311 25.1718 8.85236 25.3481 9.14218H20.4602Z" fill="#00A882"/>
</svg>
