<svg width="32" height="32" viewBox="0 0 32 32" fill="none" xmlns="http://www.w3.org/2000/svg">
<path d="M21.9965 1.13163C17.8209 -0.460834 13.6497 -0.293515 10.067 1.13897C9.97735 1.17431 9.89778 1.23117 9.8353 1.30454C9.77283 1.37791 9.72938 1.46553 9.70878 1.55966C9.68819 1.6538 9.69108 1.75156 9.7172 1.84431C9.74333 1.93707 9.79188 2.02196 9.85858 2.09151C9.93825 2.17636 10.0413 2.23562 10.1548 2.26175C10.2682 2.28788 10.3868 2.27972 10.4956 2.23828C13.8948 0.876249 17.8781 0.744155 21.8439 2.34396C24.099 3.25999 26.084 4.73447 27.6125 6.62877C29.1409 8.52308 30.1625 10.775 30.5812 13.1727C32.6051 24.728 21.7456 33.819 10.7906 29.9046C6.51661 28.3797 2.27786 23.4672 1.45154 19.0054C0.858773 15.9796 1.20126 12.845 2.43344 10.0186C2.47838 9.91295 2.49135 9.79642 2.47074 9.68347C2.45013 9.57051 2.39685 9.46608 2.31749 9.38309C2.25041 9.31287 2.16696 9.26039 2.07461 9.23035C1.98227 9.2003 1.88391 9.19364 1.78835 9.21095C1.6928 9.22825 1.60303 9.26899 1.52708 9.32952C1.45114 9.39004 1.3914 9.46846 1.35321 9.55775C0.0763016 12.4565 -0.372817 15.8381 0.334618 19.4208C0.835235 21.9448 1.95782 24.3041 3.60064 26.2847C5.24346 28.2653 7.35457 29.8047 9.74263 30.7632C21.7778 35.5758 33.9672 25.6262 31.7333 12.9291C31.2672 10.2893 30.1253 7.81517 28.419 5.74772C26.7127 3.68027 24.5 2.08995 21.9965 1.13163Z" fill="white"/>
<path d="M21.3713 26.1949C24.1816 26.1949 26.4598 23.9167 26.4598 21.1064C26.4598 18.296 24.1816 16.0178 21.3713 16.0178C18.5609 16.0178 16.2827 18.296 16.2827 21.1064C16.2827 23.9167 18.5609 26.1949 21.3713 26.1949Z" fill="#F4D45F"/>
</svg>
